<svg height="468pt" viewBox="-47 0 468 468.40003" width="468pt" xmlns="http://www.w3.org/2000/svg"><path d="m112.5625 204.699219c-13.253906 0-24 10.746093-24 24 0 13.253906 10.746094 24 24 24s24-10.746094 24-24c-.003906-13.253907-10.746094-23.996094-24-24zm150 0c-13.253906 0-24 10.746093-24 24 0 13.253906 10.746094 24 24 24s24-10.746094 24-24c-.003906-13.253907-10.746094-23.996094-24-24zm0-80.898438h86l26.199219 301.097657c.96875 11.179687-2.800781 22.253906-10.386719 30.523437s-18.292969 12.980469-29.511719 12.976563h-294.703125c-11.214844.015624-21.921875-4.691407-29.496094-12.96875-7.570312-8.277344-11.3125-19.355469-10.300781-30.53125l26.199219-301.097657zm0 0" fill="#00efd1"/><path d="m262.5625 214.898438c-5.515625-.015626-9.984375-4.480469-10-10v-119.898438c0-35.898438-29.101562-65-65-65s-65 29.101562-65 65v119.898438c0 5.523437-4.476562 10-10 10s-10-4.476563-10-10v-119.898438c0-46.945312 38.054688-85 85-85 46.941406 0 85 38.054688 85 85v119.898438c.007812 2.65625-1.042969 5.207031-2.917969 7.082031-1.878906 1.878906-4.429687 2.929687-7.082031 2.917969zm0 0" fill="#fedb41"/><g fill="#00acea"><path d="m146.5625 228.699219c0 18.777343-15.222656 34-34 34s-34-15.222657-34-34c0-18.777344 15.222656-34 34-34s34 15.222656 34 34zm0 0"/><path d="m296.5625 228.699219c0 18.777343-15.222656 34-34 34s-34-15.222657-34-34c0-18.777344 15.222656-34 34-34s34 15.222656 34 34zm0 0"/></g></svg>